<svg width="1280" height="640" viewBox="0 0 1280 640" fill="none" xmlns="http://www.w3.org/2000/svg">
  <rect width="1280" height="640" fill="#0F172A"/>
  <rect x="36" y="36" width="1208" height="568" rx="32" fill="url(#bg)"/>
  <circle cx="1112" cy="132" r="120" fill="#1D4ED8" fill-opacity="0.18"/>
  <circle cx="1038" cy="242" r="184" fill="#22C55E" fill-opacity="0.12"/>
  <circle cx="196" cy="530" r="150" fill="#F59E0B" fill-opacity="0.1"/>
  <rect x="92" y="108" width="170" height="44" rx="22" fill="#172554"/>
  <text x="177" y="137" fill="#93C5FD" font-family="Segoe UI, Arial, sans-serif" font-size="22" font-weight="700" text-anchor="middle">Desktop + Python</text>
  <text x="92" y="230" fill="#F8FAFC" font-family="Segoe UI, Arial, sans-serif" font-size="64" font-weight="800">Validador de Glebas</text>
  <text x="92" y="286" fill="#BFDBFE" font-family="Segoe UI, Arial, sans-serif" font-size="26" font-weight="600">Aplicativo desktop para validar coordenadas geodésicas</text>
  <text x="92" y="322" fill="#BFDBFE" font-family="Segoe UI, Arial, sans-serif" font-size="26" font-weight="600">e sequenciamento de pontos em planilhas .xls e .xlsx</text>
  <rect x="92" y="386" width="206" height="64" rx="20" fill="#22C55E"/>
  <text x="195" y="428" fill="#052E16" font-family="Segoe UI, Arial, sans-serif" font-size="28" font-weight="800" text-anchor="middle">Analise rapida</text>
  <rect x="316" y="386" width="238" height="64" rx="20" fill="#1D4ED8"/>
  <text x="435" y="428" fill="#EFF6FF" font-family="Segoe UI, Arial, sans-serif" font-size="28" font-weight="800" text-anchor="middle">Relatorio por gleba</text>
  <rect x="572" y="386" width="246" height="64" rx="20" fill="#F59E0B"/>
  <text x="695" y="428" fill="#451A03" font-family="Segoe UI, Arial, sans-serif" font-size="28" font-weight="800" text-anchor="middle">Build em .exe</text>
  <g filter="url(#shadow)">
    <rect x="826" y="124" width="332" height="360" rx="28" fill="#111827"/>
    <rect x="850" y="152" width="120" height="120" rx="28" fill="#16A34A"/>
    <text x="910" y="225" fill="#F8FAFC" font-family="Segoe UI, Arial, sans-serif" font-size="48" font-weight="800" text-anchor="middle">VG</text>
    <text x="998" y="190" fill="#E2E8F0" font-family="Segoe UI, Arial, sans-serif" font-size="28" font-weight="700">Tipos de erro</text>
    <text x="998" y="232" fill="#93C5FD" font-family="Segoe UI, Arial, sans-serif" font-size="22">Coordenada invalida</text>
    <text x="998" y="270" fill="#FDE68A" font-family="Segoe UI, Arial, sans-serif" font-size="22">Ponto duplicado</text>
    <text x="998" y="308" fill="#86EFAC" font-family="Segoe UI, Arial, sans-serif" font-size="22">Fechamento correto</text>
    <path d="M878 332L934 248L980 286L1062 214" stroke="#F8FAFC" stroke-width="12" stroke-linecap="round" stroke-linejoin="round"/>
    <circle cx="878" cy="332" r="12" fill="#F8FAFC"/>
    <circle cx="934" cy="248" r="12" fill="#F8FAFC"/>
    <circle cx="980" cy="286" r="12" fill="#F8FAFC"/>
    <circle cx="1062" cy="214" r="12" fill="#F8FAFC"/>
    <rect x="872" y="360" width="228" height="52" rx="16" fill="#0F766E"/>
    <text x="986" y="393" fill="#ECFEFF" font-family="Segoe UI, Arial, sans-serif" font-size="24" font-weight="700" text-anchor="middle">SICOR 2026</text>
  </g>
  <defs>
    <linearGradient id="bg" x1="58" y1="58" x2="1190" y2="580" gradientUnits="userSpaceOnUse">
      <stop stop-color="#111827"/>
      <stop offset="1" stop-color="#1E293B"/>
    </linearGradient>
    <filter id="shadow" x="794" y="96" width="396" height="424" filterUnits="userSpaceOnUse" color-interpolation-filters="sRGB">
      <feDropShadow dx="0" dy="16" stdDeviation="18" flood-color="#020617" flood-opacity="0.35"/>
    </filter>
  </defs>
</svg>
